<svg width="31" height="33" viewBox="0 0 31 33" fill="none" xmlns="http://www.w3.org/2000/svg">
<path d="M10.5053 26.2765C10.5055 26.4109 10.3666 26.5187 10.1912 26.519C9.99165 26.5395 9.85236 26.4322 9.8521 26.2776C9.85187 26.1431 9.9908 26.0354 10.1662 26.0351C10.3476 26.0146 10.5051 26.1219 10.5053 26.2765ZM8.62376 25.9772C8.58165 26.1117 8.70288 26.2661 8.8844 26.3061C9.04177 26.3731 9.22311 26.3055 9.25917 26.171C9.29524 26.0365 9.18006 25.8821 8.9985 25.8219C8.84117 25.7751 8.66588 25.8427 8.62376 25.9772ZM11.297 25.8584C11.1216 25.9057 11.0009 26.0337 11.0193 26.1882C11.0377 26.3226 11.1951 26.4098 11.3764 26.3624C11.5518 26.3151 11.6725 26.1871 11.6541 26.0527C11.6358 25.925 11.4723 25.8379 11.297 25.8584ZM15.2334 0.0933508C6.84431 0.107479 0.438899 7.19645 0.454601 16.5197C0.467155 23.9743 4.69967 30.3463 10.7337 32.5813C11.5081 32.7346 11.7794 32.2031 11.7787 31.7662C11.778 31.3494 11.756 29.0505 11.7536 27.6389C11.7536 27.6389 7.52142 28.6544 6.62723 25.6444C6.62723 25.6444 5.93442 23.6895 4.94164 23.187C4.94164 23.187 3.55479 22.134 5.03667 22.1517C5.03667 22.1517 6.54294 22.2836 7.37427 23.882C8.70323 26.4745 10.9217 25.7246 11.7859 25.2795C11.9232 24.2037 12.3151 23.457 12.7498 23.0126C9.36808 22.6015 5.95588 22.0628 5.94499 15.5963C5.94188 13.7478 6.39999 12.8194 7.36574 11.6347C7.20774 11.198 6.6906 9.39744 7.51531 7.07026C8.77868 6.63121 11.6917 8.87815 11.6917 8.87815C12.9008 8.49969 14.2009 8.30256 15.4892 8.30039C16.7775 8.29822 18.0782 8.49097 19.2885 8.86536C19.2885 8.86536 22.194 6.6019 23.4588 7.04341C24.2914 9.37452 23.7803 11.1701 23.6238 11.6073C24.5935 12.7955 25.1878 13.7221 25.1909 15.5639C25.2019 22.0505 21.6402 22.5741 18.2599 23.0033C18.8172 23.5334 19.2907 24.5409 19.2934 26.1205C19.2972 28.3858 19.2838 31.1889 19.2847 31.7401C19.2854 32.177 19.5646 32.7076 20.3324 32.5517C26.3771 30.3098 30.4671 23.9238 30.4546 16.4692C30.4389 7.14593 23.6225 0.0792229 15.2334 0.0933508ZM6.34505 23.2922C6.26653 23.3596 6.28494 23.5142 6.38797 23.6417C6.48493 23.7491 6.62412 23.7959 6.7026 23.7084C6.78112 23.641 6.76271 23.4865 6.65968 23.3589C6.56272 23.2515 6.42353 23.2047 6.34505 23.2922ZM5.6909 22.7489C5.64871 22.8363 5.70938 22.9438 5.83046 23.0108C5.92735 23.0778 6.04828 23.0575 6.09046 22.9633C6.13265 22.8758 6.07199 22.7684 5.95091 22.7014C5.82987 22.6612 5.73313 22.6816 5.6909 22.7489ZM7.65461 25.1386C7.55798 25.2261 7.59461 25.4277 7.73394 25.5552C7.87331 25.7096 8.04875 25.7294 8.1272 25.6217C8.20568 25.5342 8.16905 25.3326 8.04787 25.2051C7.91454 25.0507 7.73306 25.0309 7.65461 25.1386ZM6.96343 24.1516C6.86677 24.219 6.86706 24.3938 6.9641 24.5482C7.06113 24.7026 7.22455 24.7696 7.30307 24.7022C7.39969 24.6147 7.3994 24.4399 7.30237 24.2855C7.21743 24.131 7.06006 24.0641 6.96343 24.1516Z" fill="#fff"/>
</svg>
