<svg width="26" height="28" viewBox="0 0 26 28" fill="none" xmlns="http://www.w3.org/2000/svg">
<path d="M6.03991 27.6783L0.856877 27.687L0.826055 9.38488L6.00908 9.37615L6.03991 27.6783ZM3.41057 6.88394C1.75321 6.88673 0.40637 5.38371 0.403309 3.56635C0.401839 2.6934 0.716676 1.85568 1.27856 1.23746C1.84044 0.61925 2.60334 0.271188 3.39944 0.269847C4.19553 0.268507 4.9596 0.613997 5.52356 1.23031C6.08752 1.84663 6.40518 2.68329 6.40665 3.55624C6.40971 5.3736 5.06738 6.88115 3.41057 6.88394ZM25.4383 27.6456L20.2664 27.6543L20.2514 18.7449C20.2479 16.6216 20.2042 13.8987 17.5485 13.9032C14.8538 13.9077 14.4447 16.2153 14.4487 18.6017L14.464 27.6641L9.28655 27.6728L9.25573 9.37068L14.2267 9.36231L14.2309 11.8589L14.3035 11.8588C14.993 10.4196 16.6807 8.89925 19.2025 8.895C24.448 8.88617 25.4187 12.6722 25.427 17.592L25.4439 27.6456L25.4383 27.6456Z" fill="#fff"/>
</svg>
