<svg width="36" height="29" viewBox="0 0 36 29" fill="none" xmlns="http://www.w3.org/2000/svg">
<path d="M34.6422 9.5164C34.9085 9.29297 35.3053 9.50089 35.3059 9.85335L35.3307 24.5628C35.3339 26.469 33.8667 28.0179 32.0551 28.021L3.61632 28.0689C1.80472 28.0719 0.332318 26.5279 0.329108 24.6218L0.304348 9.91948C0.303742 9.55984 0.693069 9.35778 0.966894 9.5803C2.50032 10.8293 4.53336 12.4155 11.5153 17.7337C12.9596 18.839 15.3973 21.1654 17.8241 21.1469C20.2647 21.1644 22.7422 18.7794 24.1282 17.7125C31.0922 12.3708 33.113 10.7705 34.6422 9.5164ZM17.8202 18.838C19.4063 18.8641 21.686 16.7311 22.833 15.8517C31.893 8.90963 32.5825 8.30426 34.6715 6.57444C35.0674 6.25009 35.299 5.74619 35.2981 5.21392L35.2958 3.84726C35.2926 1.94114 33.8202 0.397143 32.0086 0.400194L3.56981 0.448087C1.7582 0.451138 0.291011 2.00009 0.294221 3.90621L0.296522 5.27286C0.297419 5.80514 0.530687 6.30106 0.927747 6.63126C3.02253 8.34685 3.71402 8.95708 12.7974 15.8686C13.9474 16.7442 16.2342 18.8694 17.8202 18.838Z" fill="#fff"/>
</svg>
